<svg width="512" height="512" viewBox="0 0 512 512" fill="none" xmlns="http://www.w3.org/2000/svg">
  <!-- 角丸のブランド背景 -->
  <rect width="512" height="512" rx="96" fill="#3859ff" />
  <!-- 白の手切り風モチーフ(歪んだ丸と不揃いな十字。素朴な一筆の形) -->
  <g fill="#ffffff">
    <!-- 歪んだ丸 -->
    <path d="M256 128 Q332 122 360 190 Q382 258 328 314 Q268 366 200 336 Q140 306 148 232 Q156 158 220 136 Q238 130 256 128 Z" />
    <!-- 不揃いな十字(丸の上に藍で抜く) -->
    <path d="M244 186 Q258 182 268 190 L266 236 L312 232 Q320 246 314 258 L268 262 L272 314 Q258 320 246 314 L242 264 L200 268 Q192 254 198 242 L240 238 L244 186 Z" fill="#3859ff" />
  </g>
</svg>
